<?xml version="1.0" standalone="no"?>
<!DOCTYPE svg PUBLIC "-//W3C//DTD SVG 20010904//EN"
 "http://www.w3.org/TR/2001/REC-SVG-20010904/DTD/svg10.dtd">
<svg version="1.0" xmlns="http://www.w3.org/2000/svg"
 width="1300.000000pt" height="1300.000000pt" viewBox="0 0 1300.000000 1300.000000"
 preserveAspectRatio="xMidYMid meet">
<metadata>
Created by potrace 1.16, written by Peter Selinger 2001-2019
</metadata>
<g transform="translate(0.000000,1300.000000) scale(0.100000,-0.100000)"
fill="#000000" stroke="none">
<path d="M6475 10013 c-32 -3 -51 -15 -95 -56 l-55 -52 48 51 49 52 -34 -4
c-106 -11 -155 -18 -262 -40 -147 -30 -227 -53 -381 -111 -213 -81 -301 -147
-330 -248 -27 -91 -3 -159 108 -307 36 -48 67 -93 70 -100 3 -9 19 0 48 27
l44 40 -40 -43 -40 -43 21 -37 c134 -237 178 -300 250 -352 l54 -41 -22 -42
c-29 -55 -32 -175 -5 -224 17 -32 17 -34 -4 -75 -34 -67 -36 -150 -5 -231 l25
-67 -32 -14 c-141 -58 -446 -289 -767 -580 -120 -108 -421 -410 -507 -509
-234 -265 -437 -566 -558 -824 -106 -226 -139 -345 -210 -758 -14 -82 -39
-199 -56 -258 -76 -278 -241 -612 -537 -1087 -130 -207 -230 -408 -262 -523
-47 -171 -9 -299 115 -381 l57 -38 104 103 104 103 -46 12 c-25 6 -49 15 -54
20 -10 10 223 243 408 406 42 38 53 58 30 58 -7 0 -67 -40 -133 -89 -199 -148
-177 -130 -308 -250 l-28 -25 22 52 c12 28 24 52 28 52 3 0 24 16 46 35 48 43
230 181 340 258 120 84 216 160 229 180 23 36 -34 75 -65 44 -38 -37 -440
-327 -454 -327 -13 0 51 102 70 112 11 6 56 39 100 72 83 64 250 183 320 227
54 35 114 72 148 93 18 11 27 25 27 42 0 36 -27 41 -74 14 -73 -40 -289 -179
-355 -227 l-64 -47 24 44 c38 68 167 164 519 388 30 19 65 44 78 55 30 27 29
65 -1 72 -18 5 -53 -14 -150 -77 -69 -46 -154 -101 -188 -123 -35 -22 -76 -49
-93 -60 l-30 -19 28 51 c25 45 48 65 198 170 241 167 240 166 252 185 8 13 7
21 -4 32 -13 14 -30 5 -145 -74 -71 -49 -146 -98 -167 -109 l-36 -20 34 69
c19 38 34 73 34 77 0 5 13 34 28 65 24 50 38 64 122 122 52 35 136 90 187 122
94 58 107 72 97 99 -12 30 -57 13 -191 -74 -76 -50 -139 -88 -141 -87 -2 2 9
43 25 91 l28 86 80 54 c44 29 116 75 160 102 162 99 174 110 144 140 -13 13
-37 2 -149 -68 -100 -63 -209 -129 -213 -129 -3 0 1 25 7 55 l11 54 104 66
c57 36 146 96 198 132 81 58 94 70 91 92 -6 48 -39 38 -152 -43 -58 -42 -108
-76 -111 -76 -3 0 -29 -16 -57 -35 -29 -19 -53 -33 -55 -31 -2 1 4 41 13 87
l16 84 66 48 c37 27 99 70 137 97 127 89 145 104 145 121 0 30 -30 30 -68 1
-40 -32 -249 -172 -255 -172 -2 0 -2 10 1 23 3 15 68 67 209 167 292 206 383
277 383 299 0 39 -31 31 -114 -32 -46 -34 -110 -79 -142 -99 -33 -21 -108 -69
-169 -108 -60 -38 -113 -70 -116 -70 -4 0 4 25 16 57 20 49 31 61 87 96 34 22
92 64 128 92 81 64 184 138 318 228 74 49 102 73 98 84 -3 8 -6 17 -6 19 0 14
-42 -2 -99 -38 -103 -64 -289 -188 -365 -241 -75 -53 -76 -51 -21 48 38 68 51
82 151 157 40 29 105 80 145 113 l72 60 76 0 c42 1 182 5 311 9 190 7 285 5
495 -9 172 -12 373 -18 593 -18 l334 0 128 128 c71 71 126 133 123 138 -3 4
-28 6 -57 3 -28 -3 -163 -5 -301 -6 l-249 0 54 -57 55 -58 -60 56 -60 57 -195
6 c-107 3 -303 11 -435 16 -240 10 -542 1 -645 -20 -25 -5 -65 -9 -88 -10
l-44 0 50 58 c111 127 538 546 636 623 l27 22 -33 36 -33 36 36 -33 c30 -28
39 -31 50 -20 23 22 141 119 220 180 41 32 131 103 201 158 l127 101 58 -25
c103 -43 164 -51 373 -50 230 1 397 17 492 48 l68 23 98 -75 c119 -91 286
-201 412 -272 290 -163 435 -264 559 -390 82 -84 186 -219 249 -325 l42 -70
-788 -3 -787 -2 -135 -135 -135 -135 913 0 c501 0 912 -2 912 -3 0 -2 -23 -42
-50 -88 -84 -140 -107 -221 -73 -254 15 -16 18 -15 34 6 9 13 22 41 29 63 7
23 37 94 68 159 l55 117 48 0 c59 0 61 -9 23 -90 -112 -242 -185 -453 -164
-474 25 -24 63 48 172 326 29 76 55 138 59 138 3 0 14 -19 26 -43 l21 -43 -40
-85 c-73 -153 -150 -333 -164 -384 -42 -153 19 -202 72 -57 36 98 156 408 164
421 6 11 12 7 24 -18 l17 -32 -90 -182 c-158 -320 -231 -557 -172 -557 31 0
55 44 129 240 72 191 162 400 173 400 3 0 13 -19 22 -42 l17 -41 -61 -126
c-106 -220 -229 -543 -236 -622 -6 -57 2 -74 29 -64 31 13 78 119 183 415 19
52 54 142 79 200 l44 105 22 -50 c12 -27 23 -61 23 -75 0 -23 -30 -94 -123
-295 -35 -76 -158 -438 -167 -495 -11 -61 -9 -123 4 -127 16 -6 53 55 53 85 0
13 4 21 9 18 12 -8 54 131 45 146 -4 6 -3 8 3 5 5 -3 26 47 48 116 21 67 57
174 81 237 24 63 50 142 59 175 18 64 26 62 44 -11 5 -21 23 -84 40 -138 l30
-99 -74 -147 c-52 -104 -72 -154 -69 -171 4 -16 3 -20 -3 -11 -7 9 -19 -7 -41
-55 -17 -37 -32 -75 -34 -83 -2 -8 -6 -17 -9 -20 -3 -3 -23 -50 -43 -104 -41
-111 -52 -198 -25 -204 22 -4 49 44 94 169 21 57 45 122 55 144 10 22 30 67
45 100 15 33 47 105 72 160 25 55 48 104 52 108 4 4 17 -24 29 -63 l21 -71
-118 -242 c-162 -329 -214 -451 -219 -514 -5 -61 14 -79 49 -47 28 25 37 44
139 279 133 304 174 395 180 395 4 0 13 -30 22 -68 l17 -67 -71 -145 c-217
-446 -267 -561 -282 -656 -11 -71 36 -121 68 -71 9 13 30 69 47 126 16 56 50
146 73 199 24 53 65 147 91 207 91 209 98 225 105 225 3 0 17 -33 29 -73 26
-83 28 -77 -50 -197 -34 -51 -159 -309 -204 -420 -99 -243 -117 -327 -75 -350
11 -6 25 -8 31 -5 23 15 58 87 98 205 52 150 142 361 209 494 l49 97 26 -70
26 -70 -38 -58 c-82 -122 -185 -332 -284 -573 -75 -185 -78 -298 -6 -259 23
12 48 65 73 154 47 166 273 663 290 637 3 -6 22 -52 42 -102 l35 -93 -93 -183
-93 -183 35 -36 c19 -19 36 -35 39 -35 4 0 22 37 41 83 19 45 52 120 73 167
l38 84 39 -78 c21 -43 44 -83 50 -90 8 -10 -3 -36 -42 -102 -29 -49 -62 -109
-72 -132 l-19 -43 33 -34 c19 -19 37 -32 41 -28 3 5 33 59 65 121 l58 112 28
-43 28 -43 -105 -212 c-58 -117 -105 -216 -105 -222 0 -11 -24 -13 -57 -4 -21
6 -21 7 -6 57 8 29 32 89 53 134 l38 81 -38 37 -38 37 -38 -78 c-20 -44 -51
-115 -69 -159 -17 -44 -35 -79 -38 -79 -4 1 -49 9 -100 19 -50 9 -132 25 -182
35 -49 10 -128 26 -175 35 -47 9 -87 19 -89 21 -3 2 6 15 18 28 27 28 22 61
-10 69 -16 4 -34 -6 -69 -39 l-47 -44 -53 10 c-29 5 -55 10 -57 10 -2 0 10 17
27 38 33 42 32 72 -2 72 -11 0 -43 -20 -71 -45 -52 -45 -53 -46 -107 -39 -80
9 -88 17 -51 43 36 26 42 65 12 81 -16 8 -30 2 -79 -34 -33 -25 -63 -49 -66
-55 -4 -6 -26 -8 -54 -5 -74 9 -77 11 -43 40 36 30 40 59 11 74 -24 13 -28 10
-96 -47 -44 -37 -57 -43 -95 -42 -24 1 -55 4 -69 8 -24 7 -24 7 13 35 53 40
61 59 39 86 -17 22 -19 22 -49 6 -18 -9 -58 -39 -90 -68 l-58 -53 -57 5 -58 5
36 34 c37 36 40 57 12 74 -13 9 -31 -1 -92 -46 -60 -45 -83 -57 -112 -57 l-37
0 41 38 c46 43 50 53 26 76 -28 28 -60 4 -271 -207 -83 -83 -150 -154 -147
-158 2 -4 86 -8 186 -8 509 -4 948 -42 1553 -137 448 -70 508 -82 592 -119
167 -72 318 -92 446 -59 187 48 310 227 294 428 -11 131 -53 225 -214 467 -56
86 -128 208 -158 273 -30 64 -55 118 -55 121 0 2 -33 89 -74 193 -78 198 -151
419 -211 637 -85 309 -125 457 -125 463 0 3 -30 -23 -67 -58 l-68 -65 65 67
64 68 -42 137 c-41 131 -77 236 -107 313 -42 104 -110 259 -163 370 -33 69
-90 188 -126 265 -195 409 -294 570 -455 747 -125 136 -335 290 -571 418 -302
164 -426 233 -452 251 -14 11 -28 19 -31 19 -2 0 -25 12 -50 26 -45 25 -46 26
-31 49 22 33 29 124 14 185 -8 35 -27 70 -57 107 l-44 54 17 44 c16 43 16 127
0 165 -5 11 35 50 140 140 81 69 171 152 201 185 74 81 152 215 214 365 79
190 80 309 3 398 -52 61 -100 85 -276 136 -245 72 -369 79 -471 26 -39 -21
-40 -21 -61 -2 -64 57 -166 91 -276 92 l-55 0 210 -212 210 -213 -215 213
c-173 170 -220 212 -240 210 -14 -1 -43 -3 -65 -5z m-155 -116 c0 -2 -17 -19
-37 -38 l-38 -34 34 38 c33 34 41 42 41 34z m-125 -127 c-53 -53 -52 -55 22
-40 117 23 354 43 433 37 82 -6 99 -24 97 -101 -1 -34 5 -62 15 -78 19 -29 76
-58 127 -65 33 -5 41 -1 73 35 21 24 44 64 54 97 15 47 24 60 51 73 29 14 42
14 94 3 33 -6 95 -25 137 -41 42 -16 110 -39 150 -50 41 -12 72 -26 72 -34 0
-40 -76 -221 -134 -319 l-29 -49 54 -56 54 -57 -57 55 -58 54 -47 -52 c-45
-49 -244 -214 -250 -208 -2 1 9 30 23 64 29 67 27 95 -8 90 -18 -2 -36 -28
-81 -118 -32 -63 -61 -116 -66 -118 -15 -5 -101 39 -101 52 0 28 42 137 86
225 45 90 50 121 20 121 -23 0 -151 -210 -182 -299 -10 -29 -17 -36 -36 -34
-13 1 -56 5 -97 9 l-74 7 6 146 c3 84 12 171 22 205 8 33 13 66 11 73 -9 23
-43 14 -55 -14 -22 -56 -60 -221 -71 -315 -11 -85 -15 -98 -31 -98 -11 0 -19
5 -19 10 0 6 -19 50 -41 98 -49 103 -89 215 -89 251 0 36 -14 54 -36 49 -33
-7 -21 -120 27 -263 22 -65 45 -128 51 -138 12 -23 11 -23 -29 -32 -21 -4 -33
-3 -33 4 0 5 -16 37 -35 70 -38 64 -138 289 -149 334 -3 15 -13 27 -20 27 -20
0 -26 -36 -16 -89 10 -54 80 -241 115 -312 14 -26 25 -52 25 -57 0 -4 -20 -18
-44 -29 l-43 -21 -55 66 c-64 79 -99 135 -163 257 -40 76 -91 155 -192 297
-13 17 -23 37 -23 44 0 32 170 103 369 155 107 28 117 32 165 79 66 65 75 65
11 0z m-425 -423 c0 -2 -19 -21 -42 -42 l-43 -40 40 43 c36 39 45 47 45 39z
m665 -634 c-31 -72 -30 -123 0 -123 14 0 47 59 68 123 5 13 18 17 53 17 43 0
46 -1 40 -22 -3 -13 -9 -32 -12 -44 -6 -23 21 -57 40 -51 6 2 18 23 26 48 18
50 33 56 84 35 33 -14 35 -17 26 -41 -13 -35 -13 -102 1 -111 7 -4 -1 -12 -20
-20 -91 -38 -93 -191 -2 -227 35 -14 80 -12 161 7 19 4 34 -2 60 -23 45 -39
36 -56 -47 -87 -93 -35 -209 -46 -440 -42 l-209 3 -69 35 c-55 27 -75 44 -92
75 l-22 40 32 35 c31 33 47 60 61 104 11 33 -13 83 -50 105 -38 23 -41 36 -17
70 13 19 145 91 167 91 3 0 3 -13 0 -28 -4 -19 -1 -32 10 -41 27 -23 48 -9 63
42 13 46 14 47 54 47 35 0 40 -2 34 -17z m439 -94 c14 -11 26 -25 26 -30 0 -9
-38 -28 -87 -43 l-22 -7 22 51 c11 27 24 50 28 50 3 0 18 -9 33 -21z m-514
-1954 c19 -19 32 -35 29 -35 -3 0 -20 16 -39 35 -19 19 -32 35 -29 35 3 0 20
-16 39 -35z m75 -75 l30 -35 -32 29 c-18 17 -33 34 -33 40 0 5 1 7 3 5 1 -2
16 -20 32 -39z m-1771 11 c3 -5 -19 -27 -49 -50 -30 -23 -55 -39 -55 -37 0 3
14 26 32 51 30 42 59 57 72 36z m4161 -1621 c3 -5 1 -10 -4 -10 -6 0 -11 5
-11 10 0 6 2 10 4 10 3 0 8 -4 11 -10z m949 -1457 c32 -54 36 -37 -38 -157
l-36 -60 32 -33 c18 -18 35 -33 38 -33 3 0 18 25 33 55 15 30 32 55 38 55 18
0 4 -85 -19 -117 l-21 -28 87 -90 87 -90 -92 89 c-83 81 -94 88 -109 75 -16
-13 -17 -12 -11 11 5 19 -1 32 -25 57 -18 18 -36 33 -40 33 -5 0 -20 -27 -35
-61 -25 -58 -28 -61 -56 -55 -17 4 -32 8 -35 10 -2 2 13 42 32 87 l36 83 -37
40 -38 41 41 -38 41 -38 44 105 c24 58 46 106 49 106 3 0 18 -21 34 -47z"/>
<path d="M7425 6465 c-79 -20 -134 -54 -187 -115 -62 -71 -82 -131 -76 -234
10 -195 143 -330 337 -343 l78 -6 -5 -72 c-7 -115 34 -181 150 -242 44 -23 65
-28 124 -28 61 1 78 5 114 29 110 72 132 147 88 295 -35 115 -100 171 -202
171 -23 0 -27 3 -21 18 31 73 37 102 33 175 -4 68 -11 89 -49 165 -24 47 -56
100 -71 118 -60 68 -196 98 -313 69z m173 -236 c35 -12 52 -49 52 -111 0 -32
-7 -47 -34 -74 -29 -29 -41 -34 -81 -34 -65 0 -109 29 -130 84 -15 39 -15 47
-2 72 16 31 43 58 67 67 26 9 96 7 128 -4z m259 -570 c-16 -10 -47 -2 -47 11
0 14 24 18 44 7 17 -8 17 -10 3 -18z"/>
<path d="M5838 6033 c-46 -29 -62 -71 -53 -139 5 -32 9 -62 11 -66 1 -5 2 -13
3 -20 0 -7 29 14 64 47 l62 60 -59 -62 c-52 -54 -58 -65 -52 -90 13 -52 77
-169 122 -224 24 -30 44 -57 44 -60 0 -4 -46 -39 -102 -79 -102 -72 -260 -204
-307 -254 l-24 -26 -37 64 c-82 140 -191 251 -375 381 -38 27 -108 84 -155
126 -95 85 -117 99 -155 99 -69 0 -112 -51 -143 -170 -38 -146 -37 -275 5
-419 21 -74 104 -249 136 -287 l27 -32 -35 -58 c-19 -32 -35 -64 -35 -71 0 -7
-4 -13 -9 -13 -5 0 -13 -10 -17 -22 -3 -13 -16 -45 -29 -73 -73 -165 -89 -354
-42 -517 29 -103 47 -133 91 -155 53 -25 97 -11 164 51 69 65 131 115 282 228
116 86 172 143 247 250 l41 58 40 -53 c55 -70 192 -203 272 -263 78 -59 204
-132 283 -165 64 -27 63 -20 21 -119 -25 -57 -28 -77 -28 -165 1 -105 15 -153
51 -174 10 -5 16 -11 13 -13 -3 -3 -42 -30 -88 -62 -78 -53 -86 -57 -134 -54
l-51 3 77 63 c56 46 76 68 76 86 0 44 -35 42 -88 -4 -26 -23 -87 -66 -137 -95
-80 -48 -97 -54 -152 -56 -35 -1 -65 0 -69 3 -3 4 27 25 66 49 56 33 70 46 68
63 -6 41 -62 24 -176 -54 -100 -68 -106 -71 -156 -68 l-51 3 64 63 c57 57 62
65 49 79 -24 23 -53 8 -138 -73 -75 -72 -79 -74 -139 -80 -33 -4 -61 -5 -61
-2 0 5 54 39 138 89 36 21 41 53 11 72 -26 16 -58 2 -192 -88 -112 -75 -133
-86 -165 -83 l-37 3 55 32 c30 17 79 53 108 78 42 38 52 53 50 74 -5 41 -43
40 -87 -2 -20 -20 -93 -71 -163 -115 -112 -69 -136 -80 -189 -86 -34 -4 -63
-5 -65 -3 -3 2 28 25 68 50 40 25 92 63 116 85 38 35 42 43 32 61 -16 30 -31
26 -102 -23 -35 -24 -117 -76 -183 -116 -97 -60 -128 -74 -170 -77 l-50 -4 25
21 c14 11 36 28 50 38 14 9 56 41 93 70 71 56 82 82 45 105 -20 13 -69 -18
-238 -150 -63 -49 -124 -95 -135 -100 -11 -6 -63 -14 -115 -19 l-95 -7 95 79
c52 44 125 103 163 133 70 55 72 58 58 80 -21 32 -59 12 -222 -115 -90 -71
-179 -143 -197 -160 -28 -26 -44 -32 -100 -38 -37 -3 -83 -6 -102 -6 l-35 1
45 40 c58 51 202 163 275 212 57 39 69 68 32 75 -30 6 -234 -133 -388 -264
-78 -66 -89 -72 -127 -71 -41 2 -46 -1 -144 -100 l-102 -102 29 -11 c15 -6 62
-15 104 -21 105 -15 254 -7 991 51 382 30 1303 70 1629 70 l135 0 -30 33 -29
32 32 -29 33 -29 262 2 c144 1 265 4 269 6 3 3 99 5 213 5 114 1 205 4 202 8
-4 3 55 68 131 145 76 76 126 132 112 125 -15 -8 -46 -12 -74 -10 l-49 4 35
32 c20 17 51 44 69 59 l33 28 -21 22 -21 21 -68 -46 c-38 -26 -85 -63 -106
-82 -33 -30 -45 -35 -95 -36 -31 -1 -61 -1 -67 -1 -5 1 10 21 34 45 46 47 51
79 14 84 -14 2 -45 -18 -99 -67 -78 -70 -80 -71 -136 -71 l-57 0 55 51 c57 55
67 83 34 94 -16 5 -35 -5 -76 -42 -126 -111 -115 -104 -182 -101 l-61 3 59 70
c33 39 59 75 60 81 0 18 -31 26 -48 12 -27 -22 -106 -102 -139 -141 -31 -37
-32 -37 -106 -37 l-74 0 83 84 c66 67 92 87 126 96 186 47 329 111 386 173 34
37 49 47 75 47 172 0 508 129 744 286 124 82 246 208 305 314 26 47 60 93 76
104 50 33 75 84 81 161 12 167 8 206 -27 271 -68 125 -282 358 -437 474 -67
50 -154 103 -175 105 -3 1 -32 15 -65 31 -123 62 -289 111 -411 120 -81 7 -82
7 -114 48 -37 46 -93 91 -155 124 -97 51 -215 72 -420 72 -66 0 -160 7 -210
16 -141 25 -167 26 -197 7z m192 -16 c0 -1 -24 -25 -52 -52 l-53 -50 50 53
c46 48 55 57 55 49z m188 -404 c-16 -19 -23 -16 -64 26 -32 34 -93 126 -94
141 0 3 38 -31 84 -75 64 -60 82 -83 74 -92z m0 147 c12 -12 22 -23 22 -26 0
-8 -36 14 -50 30 -18 23 2 19 28 -4z m194 -21 c38 -45 21 -48 -42 -6 -29 19
-46 37 -39 39 29 10 54 0 81 -33z m138 11 c12 -8 11 -10 -7 -10 -12 0 -25 5
-28 10 -8 13 15 13 35 0z m915 -190 c27 -27 47 -50 44 -50 -3 0 -27 23 -54 50
-27 28 -47 50 -44 50 3 0 27 -22 54 -50z m-445 -54 c31 -8 44 -16 41 -26 -2
-8 -15 -46 -28 -85 -35 -104 -82 -359 -95 -511 -12 -147 0 -330 28 -455 13
-60 14 -71 1 -83 -15 -15 -51 -103 -61 -148 -5 -21 -12 -28 -31 -28 l-24 0 15
48 c8 26 17 59 21 74 6 30 -10 58 -34 58 -14 0 -83 -135 -83 -164 0 -20 -10
-24 -41 -17 l-26 6 15 65 c8 36 15 83 16 105 1 33 -2 40 -19 40 -24 0 -59 -58
-81 -138 -13 -43 -21 -57 -33 -55 -19 4 -18 46 5 126 16 59 9 82 -27 82 -21 0
-63 -82 -75 -145 -5 -26 -11 -35 -26 -35 -16 0 -19 5 -14 23 39 149 40 155 27
171 -16 19 -45 21 -59 4 -5 -7 -20 -46 -33 -85 -17 -55 -27 -73 -41 -73 -22 0
-22 7 -2 96 19 81 15 107 -18 102 -18 -2 -29 -19 -53 -80 -44 -113 -78 -98
-38 15 17 46 17 50 1 61 -16 12 -16 14 5 33 40 36 81 59 157 88 149 56 280
126 329 175 79 79 94 190 34 252 -23 24 -34 28 -68 26 -38 -3 -41 -6 -70 -63
-18 -36 -43 -69 -63 -82 -27 -17 -145 -59 -280 -98 l-24 -7 19 28 c10 16 34
45 54 65 67 67 55 144 -27 181 -41 18 -52 19 -88 8 -83 -24 -174 -157 -198
-288 -14 -76 -2 -162 32 -234 19 -42 20 -51 10 -85 -17 -50 -21 -56 -31 -46
-5 5 -2 29 7 58 16 46 16 49 -1 62 -28 19 -33 17 -55 -28 -19 -35 -23 -39 -38
-28 -9 8 -18 14 -20 15 -2 1 5 20 14 43 13 33 14 44 4 56 -19 23 -49 18 -62
-10 -6 -14 -15 -25 -20 -25 -12 0 -9 32 7 60 9 18 10 29 3 37 -17 21 -48 15
-60 -12 -6 -14 -15 -25 -20 -25 -13 0 -10 28 7 60 8 16 12 36 9 44 -9 23 -51
20 -59 -4 -3 -11 -10 -20 -15 -20 -17 0 -19 17 -5 36 32 42 3 83 -34 50 -26
-23 -35 -6 -27 48 8 54 62 116 209 242 242 207 530 370 762 430 102 26 295 32
375 10z m536 -38 l29 -33 -32 29 c-31 28 -38 36 -30 36 2 0 16 -15 33 -32z
m-2485 -145 c135 -100 211 -190 284 -332 29 -57 32 -86 10 -95 -11 -4 -15 -24
-16 -83 -2 -78 -2 -78 -8 -21 -7 65 -20 83 -50 73 -27 -8 -32 -31 -34 -158 -2
-122 -18 -119 -25 5 -3 43 -8 78 -13 78 -5 0 -6 -8 -3 -17 5 -14 4 -15 -4 -4
-6 8 -8 20 -5 27 5 14 -14 14 -36 0 -11 -7 -13 -37 -9 -154 6 -162 -9 -173
-22 -17 -9 104 -13 115 -40 115 -38 0 -43 -36 -27 -194 10 -102 9 -110 -8
-122 -10 -8 -22 -14 -27 -14 -4 0 -8 42 -8 94 0 85 -2 95 -22 108 -22 15 -22
15 -3 44 10 16 47 59 82 95 66 68 83 108 69 162 -3 13 -36 55 -74 93 -47 48
-79 92 -104 145 -43 88 -78 207 -78 262 l0 39 38 -29 c20 -16 80 -61 133 -100z
m2271 66 c115 -58 269 -188 418 -353 113 -126 115 -130 96 -158 -9 -12 -16
-35 -16 -50 0 -20 -8 -31 -30 -43 -16 -8 -37 -30 -46 -48 -60 -116 -242 -288
-409 -384 -108 -62 -110 -62 -129 -6 -36 112 -47 184 -53 344 -7 208 14 412
73 711 6 30 13 29 96 -13z m-2552 -350 c0 -5 -4 -9 -8 -9 -5 0 -9 7 -9 15 0 8
4 12 9 9 4 -3 8 -9 8 -15z m194 -25 c3 -8 2 -12 -4 -9 -6 3 -10 10 -10 16 0
14 7 11 14 -7z m-36 -545 c-20 -13 -31 6 -18 31 9 17 9 21 0 15 -7 -4 -4 5 6
21 l19 28 3 -43 c2 -28 -1 -47 -10 -52z m-241 29 c-3 -8 -6 -5 -6 6 -1 11 2
17 5 13 3 -3 4 -12 1 -19z m1468 -90 c-14 -29 -31 -54 -40 -56 -19 -4 -19 3 1
61 13 38 20 47 39 47 l24 0 -24 -52z m-1188 10 c-3 -8 -6 -5 -6 6 -1 11 2 17
5 13 3 -3 4 -12 1 -19z m-197 -38 c0 -5 -5 -10 -11 -10 -5 0 -7 5 -4 10 3 6 8
10 11 10 2 0 4 -4 4 -10z m120 -64 c0 -3 -4 -8 -10 -11 -5 -3 -10 -1 -10 4 0
6 5 11 10 11 6 0 10 -2 10 -4z m2120 -108 c0 -5 -7 -8 -15 -8 -15 0 -20 21 -8
33 7 7 23 -11 23 -25z m-1319 -615 c13 -16 12 -17 -3 -4 -10 7 -18 15 -18 17
0 8 8 3 21 -13z m105 -105 l29 -33 -32 29 c-18 17 -33 31 -33 33 0 8 8 1 36
-29z m74 -73 c19 -19 32 -35 29 -35 -3 0 -20 16 -39 35 -19 19 -32 35 -29 35
3 0 20 -16 39 -35z m80 -80 c19 -19 32 -35 29 -35 -3 0 -20 16 -39 35 -19 19
-32 35 -29 35 3 0 20 -16 39 -35z"/>
<path d="M7355 5212 c-57 -37 -78 -68 -82 -124 -5 -67 19 -114 73 -145 70 -40
147 -26 200 36 25 30 29 44 29 92 0 62 -17 94 -67 132 -38 29 -115 33 -153 9z"/>
<path d="M9227 3719 c-8 -19 -31 -68 -50 -109 -59 -124 -77 -178 -77 -228 0
-51 12 -72 42 -72 24 0 43 32 77 131 16 46 44 118 64 160 l35 77 -38 37 -39
38 -14 -34z"/>
</g>
</svg>
