<svg version="1.1" id="Layer_1" xmlns="http://www.w3.org/2000/svg" xmlns:xlink="http://www.w3.org/1999/xlink" x="0px" y="0px" style="enable-background:new 0 0 512 512;" xml:space="preserve" viewBox="0 31.13 512 449.73">
<ellipse style="fill:#C9E7F8;" cx="255.916" cy="62.34" rx="217.767" ry="23.263"/>
<path style="fill:#A2D8F4;" d="M314.154,473.098c42.667,0,83.827-16.347,114.464-46.042c46.536-45.105,75.46-108.27,75.46-178.197  c0-67.326-26.823-128.379-70.35-173.087c-39.446,5.948-104.385,9.831-177.814,9.831S117.544,81.72,78.098,75.772  C34.571,120.481,7.748,181.534,7.748,248.859c0,69.926,28.925,133.093,75.46,178.197c30.637,29.695,71.797,46.042,114.464,46.042  H314.154z"/>
<path style="fill:#88C7E2;" d="M433.727,75.772c-6.402,0.965-13.486,1.875-21.157,2.724c41.992,44.45,67.76,104.389,67.76,170.363  c0,69.926-28.925,133.093-75.46,178.197c-30.637,29.695-71.797,46.042-114.464,46.042h23.748c42.667,0,83.827-16.347,114.464-46.042  c46.535-45.105,75.46-108.27,75.46-178.197C504.078,181.534,477.255,120.481,433.727,75.772z"/>
<path style="fill:#FDBF00;" d="M382.303,273.166l-49.511,40.652c-11.52-13.288-32.173-23.436-57.158-27.649l-4.028-24.565  l-43.036,24.426l0.064,0.023c-41.222,7.879-71.946,36.881-71.946,52.117c0,14.184,30.78,43.992,72.058,52.076l-0.177,0.065  l43.036,24.426l4.028-24.565c24.985-4.214,45.638-14.361,57.158-27.649l49.511,40.652l-17.938-65.069L382.303,273.166z"/>
<path style="fill:#FEDA2E;" d="M364.364,338.104l17.938-64.938l-49.511,40.652c-11.52-13.288-32.173-23.436-57.158-27.649  l-4.028-24.565l-43.036,24.426l0.064,0.023c-41.222,7.879-71.946,36.881-71.946,52.117h207.694L364.364,338.104z"/>
<path style="fill:#FED9A8;" d="M156.689,338.234c0,12.518,23.982,37.205,57.993,48.388c11.375-12.846,18.293-29.8,18.293-48.388  c0-18.649-6.963-35.654-18.406-48.516C180.617,300.627,156.689,324.789,156.689,338.234z"/>
<g>
	<circle style="fill:#FFFFFF;" cx="118.551" cy="296.824" r="15.147"/>
	<circle style="fill:#FFFFFF;" cx="100.428" cy="221.226" r="20.996"/>
	<circle style="fill:#FFFFFF;" cx="206.256" cy="200.23" r="20.996"/>
</g>
<path d="M449.297,80.966c0.654-0.13,1.316-0.258,1.947-0.39c18.222-3.773,30.359-8.334,30.359-18.323  c0-9.548-11.642-13.775-23.029-16.651c-11.324-2.86-27.392-5.413-47.757-7.589c-41.398-4.422-96.381-6.858-154.818-6.858  s-113.419,2.436-154.818,6.859c-20.364,2.176-36.431,4.729-47.756,7.589c-11.387,2.876-23.029,7.103-23.029,16.651  s11.642,13.775,23.029,16.651c2.802,0.707,5.897,1.397,9.272,2.065C22.171,127.553,0,186.584,0,248.773  c0,2.481,0.036,4.988,0.108,7.453c0.123,4.248,3.605,7.609,7.827,7.608c0.076,0,0.154-0.001,0.231-0.003  c4.326-0.125,7.729-3.732,7.605-8.058c-0.067-2.314-0.101-4.669-0.101-7.001c0-61.641,23.187-119.988,65.38-164.752  c1.278,0.181,2.582,0.359,3.909,0.536c0.03,0.004,0.062,0.008,0.092,0.013c5.036,0.67,10.407,1.312,16.133,1.923  c38.281,4.09,88.182,6.479,141.684,6.815c0.186,0.001,0.372,0.002,0.559,0.003c1.752,0.01,3.508,0.019,5.267,0.025  c0.4,0.001,0.799,0.003,1.199,0.005c2.032,0.006,4.068,0.009,6.108,0.009c3.177,0,6.349-0.01,9.518-0.025  c3.621-0.017,7.236-0.041,10.84-0.076c0.971-0.009,1.939-0.023,2.909-0.033c1.28-0.015,2.561-0.028,3.838-0.045  c0.882-0.011,1.759-0.027,2.64-0.04c1.359-0.02,2.72-0.039,4.076-0.062c1.232-0.021,2.457-0.045,3.684-0.068  c0.991-0.019,1.987-0.034,2.976-0.054c1.424-0.028,2.839-0.062,4.257-0.093c0.793-0.018,1.59-0.033,2.381-0.052  c1.314-0.031,2.62-0.066,3.929-0.099c0.887-0.023,1.777-0.044,2.661-0.067c1.226-0.033,2.443-0.07,3.663-0.105  c0.957-0.027,1.919-0.053,2.873-0.083c1.389-0.043,2.768-0.089,4.149-0.134c0.769-0.025,1.544-0.049,2.311-0.074  c1.418-0.048,2.824-0.1,4.232-0.153c0.726-0.026,1.458-0.051,2.181-0.078c1.53-0.057,3.047-0.119,4.565-0.181  c0.586-0.024,1.177-0.046,1.761-0.07c1.504-0.063,2.995-0.128,4.487-0.195c0.591-0.026,1.19-0.051,1.779-0.077  c1.851-0.084,3.687-0.171,5.515-0.261c0.211-0.01,0.426-0.02,0.637-0.03c2.013-0.099,4.01-0.203,5.994-0.308  c0.029-0.001,0.059-0.003,0.087-0.004c2.063-0.111,4.112-0.225,6.141-0.342c4.319-0.25,7.618-3.955,7.369-8.274  c-0.249-4.319-3.939-7.63-8.274-7.369c-0.4,0.023-0.809,0.045-1.211,0.068c-1.602,0.091-3.21,0.182-4.833,0.268  c-0.599,0.032-1.207,0.062-1.808,0.093c-1.408,0.073-2.814,0.147-4.237,0.218c-0.533,0.026-1.076,0.05-1.611,0.076  c-1.497,0.072-2.993,0.145-4.504,0.213c-0.693,0.031-1.396,0.061-2.091,0.091c-1.365,0.061-2.727,0.121-4.104,0.179  c-0.893,0.038-1.797,0.071-2.695,0.107c-1.191,0.047-2.378,0.096-3.577,0.142c-1.164,0.044-2.339,0.085-3.509,0.126  c-0.944,0.033-1.882,0.069-2.831,0.101c-1.252,0.043-2.516,0.081-3.776,0.122c-0.883,0.028-1.76,0.059-2.646,0.086  c-1.175,0.036-2.36,0.068-3.541,0.101c-0.98,0.028-1.955,0.057-2.939,0.085c-1.404,0.038-2.818,0.072-4.231,0.107  c-0.763,0.019-1.521,0.04-2.286,0.057c-1.571,0.037-3.151,0.07-4.73,0.103c-0.618,0.013-1.232,0.028-1.851,0.041  c-1.533,0.03-3.074,0.057-4.614,0.085c-0.671,0.011-1.337,0.026-2.009,0.037c-1.076,0.018-2.157,0.032-3.236,0.049  c-1.148,0.018-2.293,0.037-3.443,0.051c-0.62,0.008-1.243,0.014-1.865,0.022c-1.601,0.02-3.202,0.04-4.808,0.056  c-1.155,0.011-2.314,0.019-3.471,0.029c-1.082,0.009-2.162,0.02-3.246,0.027c-4.48,0.03-8.974,0.045-13.473,0.045  c-1.999,0-3.993-0.004-5.986-0.009c-0.528-0.002-1.054-0.004-1.582-0.006c-1.575-0.006-3.148-0.014-4.719-0.023  c-0.444-0.003-0.889-0.005-1.333-0.008c-65.004-0.438-125.195-3.992-163.028-9.697c-0.001,0-0.002,0-0.003,0  c-13.87-2.095-22.255-4.116-27.261-5.686c8.065-2.529,24.891-6.227,59.322-9.526c39.735-3.807,91.085-5.903,144.59-5.903  s104.855,2.097,144.59,5.903c34.452,3.301,51.279,7.001,59.338,9.531c-4.976,1.566-13.306,3.578-27.055,5.661  c-0.075,0.009-0.15,0.009-0.226,0.021c-11.547,1.741-25.256,3.297-40.831,4.636c-0.295,0.025-0.595,0.05-0.892,0.076  c-0.86,0.073-1.72,0.146-2.591,0.217c-0.64,0.052-1.295,0.106-1.946,0.158c-0.533,0.043-1.061,0.087-1.599,0.13  c-0.002,0-0.004,0.001-0.006,0.001c-0.038,0.003-0.073,0.006-0.111,0.009c-4.314,0.341-7.535,4.114-7.194,8.427  c0.34,4.312,4.107,7.541,8.426,7.193c1.965-0.155,3.899-0.315,5.815-0.477c0.661-0.055,1.311-0.113,1.965-0.17  c1.157-0.1,2.309-0.202,3.447-0.305c0.875-0.079,1.744-0.159,2.607-0.239c0.809-0.075,1.609-0.151,2.407-0.229  c1.067-0.102,2.132-0.205,3.179-0.309c0.138-0.014,0.273-0.028,0.411-0.042c4.509-0.451,8.832-0.924,12.975-1.415  c0.01-0.001,0.021-0.002,0.031-0.004c4.264-0.506,8.354-1.029,12.21-1.574c42.193,44.764,65.379,103.11,65.379,164.751  c0,65.609-25.953,126.896-73.078,172.572c-29.163,28.266-67.877,43.831-109.011,43.831H197.758  c-41.134,0-79.848-15.567-109.011-43.831c-38.714-37.523-63.92-87.473-70.976-140.647c-0.569-4.289-4.519-7.305-8.797-6.736  c-4.289,0.568-7.305,4.507-6.736,8.797c7.518,56.657,34.367,109.87,75.604,149.837c32.102,31.114,74.689,48.249,119.917,48.249  h116.483c45.228,0,87.814-17.136,119.917-48.249c24.36-23.612,43.511-51.303,56.919-82.306C504.96,318.188,512,284.033,512,248.772  C512,186.582,489.828,127.549,449.297,80.966z"/>
<path d="M212.322,393.979c0.392,0.128,0.788,0.223,1.186,0.287c3.951,1.269,7.987,2.362,12.088,3.23l42.23,23.968  c1.197,0.679,2.531,1.022,3.867,1.022c1.153,0,2.309-0.255,3.379-0.767c2.312-1.105,3.937-3.272,4.352-5.8l3.14-19.15  c20.751-4.31,38.7-12.708,50.872-23.738l43.983,36.112c2.638,2.168,6.376,2.374,9.239,0.515c2.863-1.86,4.192-5.36,3.285-8.651  l-17.364-62.985l17.363-62.854c0.909-3.292-0.418-6.793-3.282-8.655c-2.863-1.863-6.602-1.654-9.242,0.514l-43.983,36.112  c-12.171-11.031-30.121-19.428-50.872-23.74l-3.14-19.15c-0.415-2.528-2.04-4.694-4.352-5.8c-2.312-1.106-5.018-1.012-7.247,0.255  l-42.029,23.854c-16.743,3.413-32.158,10.219-44.729,18.437c-17.909,11.621-30.566,26.337-31.978,38.857  c-0.015,0.125-0.039,0.254-0.051,0.378c-0.043,0.452-0.056,0.899-0.07,1.345c-0.004,0.168-0.026,0.342-0.026,0.508  c0,0.009,0.001,0.02,0.001,0.029c0,0.011-0.001,0.023-0.001,0.034C148.941,356.789,178.558,382.878,212.322,393.979z   M164.635,337.765c0.008-0.151,0.017-0.303,0.037-0.464c0.027-0.208,0.07-0.424,0.117-0.645c0.017-0.081,0.032-0.161,0.052-0.243  c0.059-0.24,0.127-0.489,0.208-0.743c0.022-0.071,0.046-0.143,0.07-0.215c0.089-0.267,0.187-0.539,0.3-0.82  c0.023-0.057,0.05-0.117,0.074-0.176c0.519-1.252,1.268-2.63,2.232-4.1c0.067-0.101,0.13-0.202,0.198-0.303  c0.213-0.319,0.44-0.641,0.673-0.967c0.074-0.103,0.148-0.207,0.224-0.311c0.258-0.353,0.523-0.709,0.804-1.071  c0.033-0.044,0.069-0.088,0.103-0.132c7.291-9.337,22.07-21.223,42.342-28.759c8.519,11.261,13.16,25.041,13.16,39.331  c0,14.194-4.583,27.892-12.997,39.113c-14.013-5.34-24.319-12.437-30.025-16.98c-0.705-0.562-1.377-1.117-2.034-1.669  c-0.283-0.239-0.561-0.478-0.838-0.718c-0.297-0.256-0.586-0.509-0.872-0.763c-0.401-0.355-0.801-0.711-1.186-1.064  c-0.032-0.029-0.062-0.059-0.094-0.088c-1.392-1.283-2.671-2.548-3.843-3.783c-0.172-0.182-0.347-0.365-0.513-0.544  c-0.218-0.235-0.429-0.468-0.64-0.7c-5.358-5.971-7.557-10.688-7.573-12.84C164.613,338.001,164.628,337.881,164.635,337.765z   M233.293,292.32l32.488-18.439l2.208,13.469c0.543,3.305,3.125,5.9,6.428,6.458c22.94,3.869,42.091,13.002,52.541,25.056  c2.781,3.207,7.609,3.616,10.892,0.923l30.405-24.965l-11.357,41.11c-0.376,1.364-0.376,2.805-0.001,4.168l11.376,41.261  l-30.423-24.979c-3.285-2.696-8.113-2.285-10.892,0.923c-10.45,12.055-29.601,21.187-52.541,25.056  c-3.303,0.557-5.886,3.153-6.428,6.458l-2.208,13.47l-31.852-18.079c-1.003-0.859-2.228-1.471-3.59-1.737  c-0.79-0.155-1.552-0.335-2.327-0.505c8.359-12.971,12.884-28.15,12.884-43.819c0-15.75-4.566-30.996-13.003-44.007  c0.765-0.163,1.524-0.331,2.299-0.479C231.342,293.443,232.393,292.975,233.293,292.32z"/>
<path d="M208.598,323.991h-4.511c-4.328,0-7.834-3.508-7.834-7.834s3.507-7.834,7.834-7.834h4.511c4.328,0,7.834,3.508,7.834,7.834  S212.926,323.991,208.598,323.991z"/>
<path d="M118.635,323.853c-14.95,0-27.111-12.162-27.111-27.113s12.162-27.113,27.111-27.113s27.113,12.162,27.113,27.113  S133.585,323.853,118.635,323.853z M118.635,285.298c-6.309,0-11.443,5.133-11.443,11.444s5.133,11.444,11.443,11.444  c6.31,0,11.444-5.133,11.444-11.444S124.945,285.298,118.635,285.298z"/>
<path d="M100.52,249.974c-15.899,0-28.833-12.934-28.833-28.834c0-15.899,12.934-28.833,28.833-28.833s28.834,12.934,28.834,28.833  C129.352,237.04,116.417,249.974,100.52,249.974z M100.52,207.977c-7.258,0-13.164,5.905-13.164,13.164  c0,7.259,5.905,13.165,13.164,13.165s13.165-5.905,13.165-13.165C113.684,213.882,107.778,207.977,100.52,207.977z"/>
<path d="M206.342,228.975c-15.899,0-28.833-12.934-28.833-28.833s12.934-28.834,28.833-28.834s28.834,12.934,28.834,28.834  C235.176,216.04,222.241,228.975,206.342,228.975z M206.342,186.977c-7.258,0-13.164,5.905-13.164,13.165  c0,7.259,5.905,13.164,13.164,13.164c7.259,0,13.165-5.905,13.165-13.164C219.508,192.882,213.601,186.977,206.342,186.977z"/>
<g>
</g>
<g>
</g>
<g>
</g>
<g>
</g>
<g>
</g>
<g>
</g>
<g>
</g>
<g>
</g>
<g>
</g>
<g>
</g>
<g>
</g>
<g>
</g>
<g>
</g>
<g>
</g>
<g>
</g>
</svg>